name processed_emg_signals
nRows=60
nColumns=7
 
endheader
time	RGLTMED	RRF	RADDLONG	RBF	RTA	RGM
17.49999999999996	0.0120926901703925	0.0270283589199898	0.0177369637829695	0.140781651484423	0.0829584834195696	0.0195983651791588
17.509999999999962	0.012069758353145	0.0268492838308848	0.0177930653038466	0.1372414759282115	0.0827853375876741	0.0209414794264734
17.51999999999996	0.0120479268050996	0.026673811034316	0.017848551573216	0.1336996063651888	0.0828245237426818	0.0223376245220497
17.529999999999962	0.0120272182883335	0.0265021130161434	0.0179033831741975	0.1301580452475995	0.0830759908795602	0.0237864208786856
17.53999999999996	0.0120076552296141	0.0263343550928596	0.0179575208097241	0.1266187529448242	0.0835394933849469	0.0252874299792669
17.54999999999996	0.0119892597037858	0.0261706951792177	0.0180109253861217	0.123083646641347	0.0842145918100765	0.02684015397328
17.55999999999996	0.0119720534149834	0.0260112835682178	0.0180635580954437	0.1195545994006922	0.0851006538310361	0.0284440353339888
17.56999999999996	0.0119560576755165	0.0258562627238682	0.0181153804961731	0.116033439395282	0.0861968553960778	0.0300984565782426
17.57999999999996	0.0119412933822542	0.0257057670871059	0.0181663545919736	0.1125219493016843	0.0875021820596431	0.0318027400509098
17.58999999999996	0.011927780990335	0.0255599228952261	0.0182164429082584	0.1090218658602539	0.0890154305027297	0.0335561477759648
17.59999999999996	0.0119155404840186	0.0254188480151316	0.0182656085664052	0.1055348795977031	0.0907352102391804	0.035357881376286
17.60999999999996	0.0119045913445261	0.0252826517906689	0.0183138153554903	0.1020626347107188	0.0926599455074219	0.0372070820642665
17.61999999999996	0.0118949525147519	0.0251514349042725	0.0183610278014152	0.0986067291083276	0.0947878773470803	0.0391028307053963
17.62999999999996	0.0118866423607951	0.0250252892530901	0.018407211233296	0.0951687146103253	0.0971170658598117	0.041044147957024
17.639999999999958	0.0118796786303039	0.0249042978397373	0.0184523318469628	0.0917500972987325	0.0996453926536233	0.043029994484534
17.64999999999996	0.0118740784076568	0.0247885346778368	0.0184963567653974	0.0883523380188822	0.1023705634699443	0.0450592712571654
17.659999999999958	0.0118698580660344	0.0246780647125265	0.0185392540959256	0.0849768530264318	0.1052901109927054	0.0471308199256457
17.66999999999996	0.0118670332164355	0.0245729437561433	0.0185809929839766	0.0816250147762989	0.1084013978386786	0.0492434232837311
17.679999999999957	0.0118656186537041	0.0244732184392986	0.0186215436632096	0.0782981528492658	0.1117016197282665	0.0513958058156642
17.68999999999996	0.0118656282996661	0.0243789261775425	0.0186608775018009	0.0749975550117607	0.1151878088358654	0.0535866343314894
17.699999999999957	0.0118670751435003	0.0242900951538058	0.0186989670446436	0.0717244684041086	0.1188568373188423	0.0558145186921215
17.709999999999958	0.0118699711795461	0.0242067443168212	0.0187357860511825	0.0684801008523447	0.1227054210241155	0.0580780126260393
17.719999999999956	0.0118743273428144	0.0241288833957295	0.0187713095285581	0.0652656222985013	0.1267301233712965	0.0603756146394399
17.729999999999958	0.011880153442541	0.0240565129310767	0.0188055137596993	0.0620821663440899	0.1309273594113595	0.0627057690216544
17.739999999999956	0.0118874580941564	0.0239896243223829	0.018838376325996	0.0589308319013085	0.135293400059818	0.065066866947582
17.749999999999957	0.0118962486500823	0.0239281998924402	0.0188698761242536	0.0558126849463095	0.1398243765033771	0.0674572476788359
17.759999999999955	0.0119065311297734	0.0238722129684711	0.0188999933777489	0.0527287603686701	0.1445162847789743	0.0698751998652343
17.769999999999957	0.0119183101494548	0.0238216279802503	0.0189287096413688	0.0496800639110233	0.1493649905239747	0.0723189629481843
17.779999999999955	0.0119315888520091	0.0237764005752593	0.018956007800936	0.0466675741926169	0.1543662338960712	0.0747867286673807
17.789999999999957	0.0119463688374724	0.0237364777508896	0.01898187206693	0.0436922448103883	0.1595156346611967	0.0772766426720613
17.799999999999955	0.011962650094576	0.0237017980036508	0.0190062879628851	0.0407550065109602	0.164808697447508	0.0797868062378236
17.809999999999956	0.0119804309337496	0.0236722914952765	0.0190292423088121	0.0378567694267917	0.1702408171632785	0.0823152780897631
17.819999999999954	0.0119997079219753	0.0236478802355405	0.0190507232000276	0.034998425369555	0.1758072845763015	0.0848600763324196
17.829999999999956	0.012020475819856	0.0236284782815208	0.0190707199817923	0.0321808501736576	0.1815032920521608	0.0874191804867517
17.839999999999954	0.0120427275212271	0.023613991952962	0.0190892232201627	0.0294049060826778	0.1873239394484384	0.089990533634071
17.849999999999955	0.0120664539956148	0.0236043200633138	0.0191062246694755	0.0266714441713477	0.1932642401615749	0.0925720446665824
17.859999999999953	0.0120916442338087	0.0235993541659356	0.0191217172369247	0.0239813067955846	0.1993191273226684	0.0951615906438846
17.869999999999955	0.0121182851967817	0.0235989788148904	0.0191356949447415	0.0213353300629498	0.2054834601380137	0.0977570192544906
17.879999999999953	0.0121463617681649	0.0236030718396708	0.0191481528905177	0.0187343463158013	0.2117520303697188	0.1003561513811261
17.889999999999954	0.0121758567104531	0.0236115046331359	0.0191590872062237	0.0161791866193144	0.2181195689513115	0.1029567837682434
17.899999999999952	0.0122067506250939	0.023624142451865	0.0191684950164712	0.0136706832464454	0.2245807527329231	0.1055566917898729
17.909999999999954	0.0122390219166132	0.0236408447280726	0.0191763743965546	0.0112096721518487	0.2311302113503339	0.1081536323156014
17.919999999999952	0.0122726467609262	0.023661465392162	0.0191827243307901	0.0087969954266842	0.2377625342119161	0.1107453466721515
17.929999999999954	0.0123075990779926	0.0236858532049522	0.0191875446716399	0.0064335037262244	0.2444722775973389	0.1133295636976828
17.93999999999995	0.012343850508985	0.0237138520985689	0.0191908361000642	0.0041200586621374	0.2512539718619112	0.115904002885569
17.949999999999953	0.012381370398133	0.0237453015249718	0.0191926000875082	0.0018575351513364	0.258102128740549	0.1184663776139994
17.95999999999995	0.0124201257794081	0.0237800368110795	0.0191928388598899	0.0003531762867099	0.2650112487454703	0.1210143984573365
17.969999999999953	0.0124600813682008	0.0238178895194378	0.0191915553639355	0.0025111672922792	0.2719758286517686	0.1235457765747476
17.97999999999995	0.012501199558145	0.0238586878133582	0.0191887532361741	0.0046155094953304	0.2789903690650006	0.1260582271712158
17.989999999999952	0.0125434404232356	0.0239022568254353	0.0191844367748804	0.0066652524210025	0.2860493820648175	0.1285494730256271
17.99999999999995	0.012586761725384	0.0239484190283176	0.0191786109152073	0.0086594214784427	0.2931473989184411	0.1310172480802187
18.009999999999952	0.0126311189275383	0.0239969946066049	0.0191712812077122	0.0105970160405355	0.3002789778573966	0.1334593010852482
18.01999999999995	0.0126764652124786	0.0240478018287537	0.0191624538004477	0.0124770076218813	0.3074387119103351	0.1358733992923095
18.02999999999995	0.0127227515073657	0.0241006574179431	0.019152135424751	0.0142983381621491	0.3146212367840207	0.1382573321892736
18.03999999999995	0.012769926514097	0.024155376920968	0.0191403333848309	0.0160599184217058	0.3218212387837426	0.1406089152693864
18.04999999999995	0.0128179367455048	0.0242117750743573	0.0191270555512195	0.0177606264962394	0.329033462763617	0.1429259938266217
18.05999999999995	0.0128667265674235	0.0242696661670045	0.0191123103581111	0.0193993064569038	0.3362527200965213	0.1452064467690036
18.06999999999995	0.0129162382466712	0.0243288643986529	0.0190961068045691	0.020974767122308	0.3434738966527252	0.147448190441332
18.07999999999995	0.0129664120049941	0.0243891842336163	0.0190784544595291	0.022485780968415	0.3506919607756577	0.149649182448659
18.08999999999995	0.0130171860790326	0.0244504407491445	0.0190593634704768	0.0239310831821503	0.3579019712426071	0.1518074254719595
